# xmcd
#
# Track frame offsets:
#	150
#	10160
#	28229
#	52484
#	62828
#	97686
#	118187
#	136076
#	152398
#	173481
#	186897
#	211418
#	224876
#
# Disc length: 3217 seconds
#
# Revision: 0
# Processed by: cddbd v1.5.1PL0 Copyright (c) Steve Scherf et al.
# Submitted via: dBpowerAMP V4.0
#
DISCID=b90c8f0d
DTITLE=Blue Hawaiians - Blue Plate Special
DYEAR=1999
DGENRE=Blues
TTITLE0=Rocket 88
TTITLE1=Close To You
TTITLE2=Got Love If You Want It
TTITLE3=Baby, Let Me Hold Your Hand
TTITLE4=You Don't Miss Your Water
TTITLE5=Love So Fine
TTITLE6=Something You Got
TTITLE7=Not Fade Away
TTITLE8=My Last Meal
TTITLE9=Sick and Tired
TTITLE10=No Woman No Cry
TTITLE11=Sittin' On It All The Time
TTITLE12=Rock On
EXTD=
EXTT0=
EXTT1=
EXTT2=
EXTT3=
EXTT4=
EXTT5=
EXTT6=
EXTT7=
EXTT8=
EXTT9=
EXTT10=
EXTT11=
EXTT12=
PLAYORDER=
